<mxfile host="app.diagrams.net" agent="Mozilla/5.0 (Windows NT 10.0; Win64; x64) AppleWebKit/537.36 (KHTML, like Gecko) Chrome/134.0.0.0 Safari/537.36" version="26.1.3">
  <diagram name="第 1 页" id="hRdyBuIe_j8G2PpD1SFF">
    <mxGraphModel dx="1290" dy="557" grid="1" gridSize="10" guides="1" tooltips="1" connect="1" arrows="1" fold="1" page="1" pageScale="1" pageWidth="827" pageHeight="1169" math="0" shadow="0">
      <root>
        <mxCell id="0" />
        <mxCell id="1" parent="0" />
        <mxCell id="ZmFsVwPLsDHrUgONcmU9-34" value="" style="rounded=0;whiteSpace=wrap;html=1;dashed=1;" parent="1" vertex="1">
          <mxGeometry x="385" y="100" width="180" height="340" as="geometry" />
        </mxCell>
        <mxCell id="sX4xNsWJsBZlZlb6Hwkb-9" style="edgeStyle=orthogonalEdgeStyle;rounded=0;orthogonalLoop=1;jettySize=auto;html=1;entryX=1;entryY=0.5;entryDx=0;entryDy=0;shape=flexArrow;" parent="1" source="ZmFsVwPLsDHrUgONcmU9-28" target="sX4xNsWJsBZlZlb6Hwkb-1" edge="1">
          <mxGeometry relative="1" as="geometry" />
        </mxCell>
        <mxCell id="ZmFsVwPLsDHrUgONcmU9-28" value="" style="rounded=0;whiteSpace=wrap;html=1;dashed=1;" parent="1" vertex="1">
          <mxGeometry x="400" y="600" width="710" height="220" as="geometry" />
        </mxCell>
        <mxCell id="cwfqS2g9V0hjJfOpwHUW-23" value="" style="rounded=1;whiteSpace=wrap;html=1;" parent="1" vertex="1">
          <mxGeometry x="1260" y="306" width="120" height="230" as="geometry" />
        </mxCell>
        <mxCell id="npg-B8WdXjfn3l7shgS7-1" value="&lt;font style=&quot;font-size: 24px;&quot;&gt;一部手机管安全5.0架构&lt;/font&gt;" style="rounded=1;whiteSpace=wrap;html=1;" parent="1" vertex="1">
          <mxGeometry x="10" y="20" width="1310" height="60" as="geometry" />
        </mxCell>
        <mxCell id="npg-B8WdXjfn3l7shgS7-2" value="&lt;font style=&quot;font-size: 16px;&quot;&gt;云岭建设&lt;/font&gt;" style="rounded=1;whiteSpace=wrap;html=1;fillColor=#dae8fc;strokeColor=#6c8ebf;gradientColor=#00FFFF;" parent="1" vertex="1">
          <mxGeometry x="589" y="664" width="150" height="40" as="geometry" />
        </mxCell>
        <mxCell id="npg-B8WdXjfn3l7shgS7-3" value="&lt;font style=&quot;font-size: 16px;&quot;&gt;交科院&lt;/font&gt;" style="rounded=1;whiteSpace=wrap;html=1;fillColor=#dae8fc;strokeColor=#6c8ebf;gradientColor=#00FFFF;" parent="1" vertex="1">
          <mxGeometry x="409" y="664" width="150" height="40" as="geometry" />
        </mxCell>
        <mxCell id="npg-B8WdXjfn3l7shgS7-4" value="&lt;font style=&quot;font-size: 16px;&quot;&gt;公路建设&lt;/font&gt;" style="rounded=1;whiteSpace=wrap;html=1;fillColor=#dae8fc;strokeColor=#6c8ebf;gradientColor=#00FFFF;" parent="1" vertex="1">
          <mxGeometry x="769" y="664" width="150" height="40" as="geometry" />
        </mxCell>
        <mxCell id="npg-B8WdXjfn3l7shgS7-5" value="&lt;font style=&quot;font-size: 16px;&quot;&gt;管理处&lt;/font&gt;" style="rounded=1;whiteSpace=wrap;html=1;fillColor=#fff2cc;strokeColor=#d6b656;gradientColor=#CCCC00;" parent="1" vertex="1">
          <mxGeometry x="949" y="664" width="150" height="40" as="geometry" />
        </mxCell>
        <mxCell id="npg-B8WdXjfn3l7shgS7-6" value="&lt;font style=&quot;font-size: 18px;&quot;&gt;交发展&lt;/font&gt;" style="rounded=1;whiteSpace=wrap;html=1;dashed=1;" parent="1" vertex="1">
          <mxGeometry x="150" y="943" width="120" height="60" as="geometry" />
        </mxCell>
        <mxCell id="npg-B8WdXjfn3l7shgS7-7" value="&lt;font style=&quot;font-size: 18px;&quot;&gt;投资马西&lt;/font&gt;" style="rounded=1;whiteSpace=wrap;html=1;dashed=1;" parent="1" vertex="1">
          <mxGeometry x="290" y="943" width="120" height="60" as="geometry" />
        </mxCell>
        <mxCell id="npg-B8WdXjfn3l7shgS7-8" value="&lt;font style=&quot;font-size: 18px;&quot;&gt;投资安巡&lt;/font&gt;" style="rounded=1;whiteSpace=wrap;html=1;dashed=1;" parent="1" vertex="1">
          <mxGeometry x="430" y="943" width="120" height="60" as="geometry" />
        </mxCell>
        <mxCell id="npg-B8WdXjfn3l7shgS7-9" value="&lt;font style=&quot;font-size: 16px;&quot;&gt;集团版业务模块&lt;/font&gt;" style="rounded=1;whiteSpace=wrap;html=1;fillColor=#d5e8d4;strokeColor=#82b366;gradientColor=#00CC66;" parent="1" vertex="1">
          <mxGeometry x="399" y="241" width="150" height="40" as="geometry" />
        </mxCell>
        <mxCell id="npg-B8WdXjfn3l7shgS7-10" value="&lt;font style=&quot;font-size: 16px;&quot;&gt;关键施工风险防控&lt;/font&gt;" style="rounded=1;whiteSpace=wrap;html=1;fillColor=#d5e8d4;strokeColor=#82b366;gradientColor=#00CC66;" parent="1" vertex="1">
          <mxGeometry x="399" y="166.25" width="150" height="40" as="geometry" />
        </mxCell>
        <mxCell id="npg-B8WdXjfn3l7shgS7-13" value="&lt;font style=&quot;font-size: 16px;&quot;&gt;独立模块&lt;/font&gt;" style="rounded=0;whiteSpace=wrap;html=1;fillColor=#f5f5f5;fontColor=#333333;strokeColor=#666666;" parent="1" vertex="1">
          <mxGeometry x="10" y="943" width="120" height="60" as="geometry" />
        </mxCell>
        <mxCell id="npg-B8WdXjfn3l7shgS7-14" value="&lt;font style=&quot;font-size: 16px;&quot;&gt;业务模块&lt;/font&gt;" style="rounded=0;whiteSpace=wrap;html=1;fillColor=#dae8fc;strokeColor=#6c8ebf;" parent="1" vertex="1">
          <mxGeometry x="10" y="205" width="120" height="715" as="geometry" />
        </mxCell>
        <mxCell id="npg-B8WdXjfn3l7shgS7-15" value="&lt;font style=&quot;font-size: 16px;&quot;&gt;统计模块&lt;/font&gt;" style="rounded=0;whiteSpace=wrap;html=1;fillColor=#d5e8d4;strokeColor=#82b366;" parent="1" vertex="1">
          <mxGeometry x="10" y="123" width="120" height="62.5" as="geometry" />
        </mxCell>
        <mxCell id="npg-B8WdXjfn3l7shgS7-18" value="" style="rounded=1;whiteSpace=wrap;html=1;" parent="1" vertex="1">
          <mxGeometry x="409" y="723" width="690" height="91" as="geometry" />
        </mxCell>
        <mxCell id="npg-B8WdXjfn3l7shgS7-20" value="风险管控" style="rounded=0;whiteSpace=wrap;html=1;" parent="1" vertex="1">
          <mxGeometry x="441.5" y="733" width="85" height="30" as="geometry" />
        </mxCell>
        <mxCell id="npg-B8WdXjfn3l7shgS7-22" value="危大工程" style="rounded=0;whiteSpace=wrap;html=1;" parent="1" vertex="1">
          <mxGeometry x="441.5" y="773" width="85" height="30" as="geometry" />
        </mxCell>
        <mxCell id="npg-B8WdXjfn3l7shgS7-23" value="安全检查" style="rounded=0;whiteSpace=wrap;html=1;fillColor=#fff2cc;strokeColor=#d6b656;" parent="1" vertex="1">
          <mxGeometry x="981.5" y="773" width="85" height="30" as="geometry" />
        </mxCell>
        <mxCell id="npg-B8WdXjfn3l7shgS7-24" value="任务管理" style="rounded=0;whiteSpace=wrap;html=1;fillColor=#fff2cc;strokeColor=#d6b656;" parent="1" vertex="1">
          <mxGeometry x="801.5" y="773" width="85" height="30" as="geometry" />
        </mxCell>
        <mxCell id="npg-B8WdXjfn3l7shgS7-25" value="劳务管理" style="rounded=0;whiteSpace=wrap;html=1;" parent="1" vertex="1">
          <mxGeometry x="801.5" y="733" width="85" height="30" as="geometry" />
        </mxCell>
        <mxCell id="npg-B8WdXjfn3l7shgS7-26" value="设备管理" style="rounded=0;whiteSpace=wrap;html=1;" parent="1" vertex="1">
          <mxGeometry x="621.5" y="733" width="85" height="30" as="geometry" />
        </mxCell>
        <mxCell id="npg-B8WdXjfn3l7shgS7-28" value="视频监控" style="rounded=0;whiteSpace=wrap;html=1;" parent="1" vertex="1">
          <mxGeometry x="1277.5" y="316" width="85" height="30" as="geometry" />
        </mxCell>
        <mxCell id="npg-B8WdXjfn3l7shgS7-30" value="教育培训" style="rounded=0;whiteSpace=wrap;html=1;fillColor=#fff2cc;strokeColor=#d6b656;" parent="1" vertex="1">
          <mxGeometry x="621.5" y="773" width="85" height="30" as="geometry" />
        </mxCell>
        <mxCell id="npg-B8WdXjfn3l7shgS7-31" value="数据统计" style="rounded=0;whiteSpace=wrap;html=1;" parent="1" vertex="1">
          <mxGeometry x="981.5" y="733" width="85" height="30" as="geometry" />
        </mxCell>
        <mxCell id="npg-B8WdXjfn3l7shgS7-56" value="" style="rounded=1;whiteSpace=wrap;html=1;" parent="1" vertex="1">
          <mxGeometry x="573" y="269.5" width="310" height="89" as="geometry" />
        </mxCell>
        <mxCell id="npg-B8WdXjfn3l7shgS7-58" value="风险管理" style="rounded=0;whiteSpace=wrap;html=1;" parent="1" vertex="1">
          <mxGeometry x="583" y="279.5" width="85" height="30" as="geometry" />
        </mxCell>
        <mxCell id="npg-B8WdXjfn3l7shgS7-61" value="隐患管理" style="rounded=0;whiteSpace=wrap;html=1;" parent="1" vertex="1">
          <mxGeometry x="681" y="279.5" width="85" height="30" as="geometry" />
        </mxCell>
        <mxCell id="npg-B8WdXjfn3l7shgS7-62" value="任务管理" style="rounded=0;whiteSpace=wrap;html=1;" parent="1" vertex="1">
          <mxGeometry x="778" y="279.5" width="85" height="30" as="geometry" />
        </mxCell>
        <mxCell id="npg-B8WdXjfn3l7shgS7-63" value="劳务管理" style="rounded=0;whiteSpace=wrap;html=1;" parent="1" vertex="1">
          <mxGeometry x="680" y="318.5" width="85" height="30" as="geometry" />
        </mxCell>
        <mxCell id="npg-B8WdXjfn3l7shgS7-64" value="设备管理" style="rounded=0;whiteSpace=wrap;html=1;" parent="1" vertex="1">
          <mxGeometry x="583" y="318.5" width="85" height="30" as="geometry" />
        </mxCell>
        <mxCell id="npg-B8WdXjfn3l7shgS7-66" value="信息报送" style="rounded=0;whiteSpace=wrap;html=1;" parent="1" vertex="1">
          <mxGeometry x="778" y="318.5" width="85" height="30" as="geometry" />
        </mxCell>
        <mxCell id="npg-B8WdXjfn3l7shgS7-77" value="" style="verticalLabelPosition=bottom;aspect=fixed;html=1;shape=mxgraph.salesforce.data;" parent="1" vertex="1">
          <mxGeometry x="1030.4" y="130.25" width="48.6" height="60" as="geometry" />
        </mxCell>
        <mxCell id="npg-B8WdXjfn3l7shgS7-79" value="&lt;font style=&quot;font-size: 16px;&quot;&gt;数据汇聚&lt;/font&gt;" style="rounded=0;whiteSpace=wrap;html=1;fillColor=#dae8fc;strokeColor=#6c8ebf;" parent="1" vertex="1">
          <mxGeometry x="719.5" y="953" width="100" height="40" as="geometry" />
        </mxCell>
        <mxCell id="npg-B8WdXjfn3l7shgS7-82" style="edgeStyle=orthogonalEdgeStyle;rounded=0;orthogonalLoop=1;jettySize=auto;html=1;entryX=1;entryY=0.5;entryDx=0;entryDy=0;" parent="1" target="npg-B8WdXjfn3l7shgS7-10" edge="1">
          <mxGeometry relative="1" as="geometry">
            <mxPoint x="875.4000000000001" y="154.25" as="sourcePoint" />
            <Array as="points">
              <mxPoint x="712" y="154" />
              <mxPoint x="712" y="186" />
            </Array>
          </mxGeometry>
        </mxCell>
        <mxCell id="g1NR8oi6RR4LAQB7Cah_-6" value="" style="image;aspect=fixed;html=1;points=[];align=center;fontSize=12;image=img/lib/azure2/app_services/API_Management_Services.svg;" parent="1" vertex="1">
          <mxGeometry x="879" y="130.75" width="65" height="60" as="geometry" />
        </mxCell>
        <mxCell id="cwfqS2g9V0hjJfOpwHUW-2" value="" style="rounded=1;whiteSpace=wrap;html=1;" parent="1" vertex="1">
          <mxGeometry x="142" y="406" width="197.5" height="194" as="geometry" />
        </mxCell>
        <mxCell id="npg-B8WdXjfn3l7shgS7-19" value="&lt;font style=&quot;color: rgb(255, 255, 255);&quot;&gt;系统管理&lt;/font&gt;" style="rounded=1;whiteSpace=wrap;html=1;fillColor=#FFCCCC;strokeColor=#b85450;gradientColor=#FF0000;" parent="1" vertex="1">
          <mxGeometry x="198.25" y="415" width="85" height="30" as="geometry" />
        </mxCell>
        <mxCell id="cwfqS2g9V0hjJfOpwHUW-5" value="人员管理" style="rounded=0;whiteSpace=wrap;html=1;" parent="1" vertex="1">
          <mxGeometry x="149.5" y="466" width="85" height="30" as="geometry" />
        </mxCell>
        <mxCell id="ZmFsVwPLsDHrUgONcmU9-16" style="edgeStyle=orthogonalEdgeStyle;rounded=0;orthogonalLoop=1;jettySize=auto;html=1;exitX=1;exitY=0.5;exitDx=0;exitDy=0;" parent="1" source="cwfqS2g9V0hjJfOpwHUW-6" edge="1">
          <mxGeometry relative="1" as="geometry">
            <mxPoint x="752" y="600" as="targetPoint" />
            <Array as="points">
              <mxPoint x="333" y="560" />
              <mxPoint x="752" y="560" />
            </Array>
          </mxGeometry>
        </mxCell>
        <mxCell id="ZmFsVwPLsDHrUgONcmU9-17" value="权限分化" style="edgeLabel;html=1;align=center;verticalAlign=middle;resizable=0;points=[];fontSize=15;" parent="ZmFsVwPLsDHrUgONcmU9-16" vertex="1" connectable="0">
          <mxGeometry x="0.0797" y="-2" relative="1" as="geometry">
            <mxPoint x="-40" y="-1" as="offset" />
          </mxGeometry>
        </mxCell>
        <mxCell id="cwfqS2g9V0hjJfOpwHUW-6" value="权限管理" style="rounded=0;whiteSpace=wrap;html=1;" parent="1" vertex="1">
          <mxGeometry x="248.25" y="546" width="85" height="30" as="geometry" />
        </mxCell>
        <mxCell id="cwfqS2g9V0hjJfOpwHUW-7" value="组织管理" style="rounded=0;whiteSpace=wrap;html=1;" parent="1" vertex="1">
          <mxGeometry x="248.25" y="466" width="85" height="30" as="geometry" />
        </mxCell>
        <mxCell id="cwfqS2g9V0hjJfOpwHUW-8" value="字典管理" style="rounded=0;whiteSpace=wrap;html=1;" parent="1" vertex="1">
          <mxGeometry x="149.5" y="506" width="85" height="30" as="geometry" />
        </mxCell>
        <mxCell id="cwfqS2g9V0hjJfOpwHUW-9" value="项目管理" style="rounded=0;whiteSpace=wrap;html=1;" parent="1" vertex="1">
          <mxGeometry x="248.25" y="506" width="85" height="30" as="geometry" />
        </mxCell>
        <mxCell id="cwfqS2g9V0hjJfOpwHUW-10" value="登录管理" style="rounded=0;whiteSpace=wrap;html=1;" parent="1" vertex="1">
          <mxGeometry x="150" y="546" width="85" height="30" as="geometry" />
        </mxCell>
        <mxCell id="cwfqS2g9V0hjJfOpwHUW-24" value="云岭NVR" style="rounded=0;whiteSpace=wrap;html=1;" parent="1" vertex="1">
          <mxGeometry x="1277.5" y="367" width="85" height="30" as="geometry" />
        </mxCell>
        <mxCell id="cwfqS2g9V0hjJfOpwHUW-25" value="公建NVR" style="rounded=0;whiteSpace=wrap;html=1;" parent="1" vertex="1">
          <mxGeometry x="1277.5" y="406" width="85" height="30" as="geometry" />
        </mxCell>
        <mxCell id="cwfqS2g9V0hjJfOpwHUW-26" value="交科院NVR" style="rounded=0;whiteSpace=wrap;html=1;" parent="1" vertex="1">
          <mxGeometry x="1277.5" y="446" width="85" height="30" as="geometry" />
        </mxCell>
        <mxCell id="cwfqS2g9V0hjJfOpwHUW-30" style="edgeStyle=orthogonalEdgeStyle;rounded=0;orthogonalLoop=1;jettySize=auto;html=1;exitX=0.5;exitY=1;exitDx=0;exitDy=0;exitPerimeter=0;entryX=0.5;entryY=0;entryDx=0;entryDy=0;shape=link;" parent="1" source="cwfqS2g9V0hjJfOpwHUW-27" target="cwfqS2g9V0hjJfOpwHUW-2" edge="1">
          <mxGeometry relative="1" as="geometry" />
        </mxCell>
        <mxCell id="cwfqS2g9V0hjJfOpwHUW-33" style="edgeStyle=orthogonalEdgeStyle;rounded=0;orthogonalLoop=1;jettySize=auto;html=1;exitX=0.9;exitY=0.2;exitDx=0;exitDy=0;exitPerimeter=0;entryX=0;entryY=0.5;entryDx=0;entryDy=0;curved=1;" parent="1" target="npg-B8WdXjfn3l7shgS7-10" edge="1">
          <mxGeometry relative="1" as="geometry">
            <mxPoint x="260.5" y="283.68" as="sourcePoint" />
            <mxPoint x="399" y="174.32999999999998" as="targetPoint" />
          </mxGeometry>
        </mxCell>
        <mxCell id="cwfqS2g9V0hjJfOpwHUW-34" style="edgeStyle=orthogonalEdgeStyle;rounded=0;orthogonalLoop=1;jettySize=auto;html=1;exitX=0.995;exitY=0.63;exitDx=0;exitDy=0;exitPerimeter=0;entryX=0;entryY=0.75;entryDx=0;entryDy=0;curved=1;" parent="1" source="cwfqS2g9V0hjJfOpwHUW-27" target="npg-B8WdXjfn3l7shgS7-9" edge="1">
          <mxGeometry relative="1" as="geometry" />
        </mxCell>
        <mxCell id="cwfqS2g9V0hjJfOpwHUW-36" style="edgeStyle=orthogonalEdgeStyle;rounded=0;orthogonalLoop=1;jettySize=auto;html=1;exitX=0.995;exitY=0.63;exitDx=0;exitDy=0;exitPerimeter=0;entryX=0;entryY=0.25;entryDx=0;entryDy=0;curved=1;" parent="1" source="cwfqS2g9V0hjJfOpwHUW-27" target="ZmFsVwPLsDHrUgONcmU9-1" edge="1">
          <mxGeometry relative="1" as="geometry" />
        </mxCell>
        <mxCell id="ZmFsVwPLsDHrUgONcmU9-32" value="权限控制" style="edgeLabel;html=1;align=center;verticalAlign=middle;resizable=0;points=[];fontSize=18;" parent="cwfqS2g9V0hjJfOpwHUW-36" vertex="1" connectable="0">
          <mxGeometry x="-0.9086" y="3" relative="1" as="geometry">
            <mxPoint x="33" as="offset" />
          </mxGeometry>
        </mxCell>
        <mxCell id="cwfqS2g9V0hjJfOpwHUW-27" value="" style="aspect=fixed;sketch=0;html=1;dashed=0;whitespace=wrap;verticalLabelPosition=bottom;verticalAlign=top;fillColor=#2875E2;strokeColor=#ffffff;points=[[0.005,0.63,0],[0.1,0.2,0],[0.9,0.2,0],[0.5,0,0],[0.995,0.63,0],[0.72,0.99,0],[0.5,1,0],[0.28,0.99,0]];shape=mxgraph.kubernetes.icon2;kubernetesLabel=1;prIcon=api" parent="1" vertex="1">
          <mxGeometry x="215.5" y="254" width="50" height="48" as="geometry" />
        </mxCell>
        <mxCell id="cwfqS2g9V0hjJfOpwHUW-31" style="edgeStyle=orthogonalEdgeStyle;rounded=0;orthogonalLoop=1;jettySize=auto;html=1;exitX=0.5;exitY=1;exitDx=0;exitDy=0;exitPerimeter=0;entryX=0.5;entryY=0;entryDx=0;entryDy=0;shape=link;" parent="1" source="cwfqS2g9V0hjJfOpwHUW-28" target="cwfqS2g9V0hjJfOpwHUW-23" edge="1">
          <mxGeometry relative="1" as="geometry" />
        </mxCell>
        <mxCell id="cwfqS2g9V0hjJfOpwHUW-28" value="" style="aspect=fixed;sketch=0;html=1;dashed=0;whitespace=wrap;verticalLabelPosition=bottom;verticalAlign=top;fillColor=#2875E2;strokeColor=#ffffff;points=[[0.005,0.63,0],[0.1,0.2,0],[0.9,0.2,0],[0.5,0,0],[0.995,0.63,0],[0.72,0.99,0],[0.5,1,0],[0.28,0.99,0]];shape=mxgraph.kubernetes.icon2;kubernetesLabel=1;prIcon=api" parent="1" vertex="1">
          <mxGeometry x="1295" y="205" width="50" height="48" as="geometry" />
        </mxCell>
        <mxCell id="npg-B8WdXjfn3l7shgS7-83" style="edgeStyle=orthogonalEdgeStyle;rounded=0;orthogonalLoop=1;jettySize=auto;html=1;entryX=0.874;entryY=0.5;entryDx=0;entryDy=0;entryPerimeter=0;startArrow=classic;startFill=1;" parent="1" source="npg-B8WdXjfn3l7shgS7-77" target="g1NR8oi6RR4LAQB7Cah_-6" edge="1">
          <mxGeometry relative="1" as="geometry">
            <mxPoint x="949" y="161.75" as="targetPoint" />
          </mxGeometry>
        </mxCell>
        <mxCell id="ZmFsVwPLsDHrUgONcmU9-24" style="edgeStyle=orthogonalEdgeStyle;rounded=0;orthogonalLoop=1;jettySize=auto;html=1;endArrow=none;endFill=0;" parent="1" source="ZmFsVwPLsDHrUgONcmU9-1" edge="1">
          <mxGeometry relative="1" as="geometry">
            <mxPoint x="475" y="560" as="targetPoint" />
          </mxGeometry>
        </mxCell>
        <mxCell id="ZmFsVwPLsDHrUgONcmU9-1" value="&lt;span style=&quot;font-size: 16px;&quot;&gt;业务通用模块&lt;/span&gt;" style="rounded=1;whiteSpace=wrap;html=1;fillColor=#d5e8d4;strokeColor=#82b366;gradientColor=#00CC66;" parent="1" vertex="1">
          <mxGeometry x="400" y="387.5" width="150" height="40" as="geometry" />
        </mxCell>
        <mxCell id="ZmFsVwPLsDHrUgONcmU9-18" value="&lt;font style=&quot;font-size: 14px;&quot;&gt;二级单位业务板块&lt;/font&gt;" style="rounded=0;whiteSpace=wrap;html=1;" parent="1" vertex="1">
          <mxGeometry x="679" y="604" width="150" height="40" as="geometry" />
        </mxCell>
        <mxCell id="ZmFsVwPLsDHrUgONcmU9-31" style="edgeStyle=orthogonalEdgeStyle;rounded=0;orthogonalLoop=1;jettySize=auto;html=1;exitX=0.5;exitY=0;exitDx=0;exitDy=0;exitPerimeter=0;entryX=0.519;entryY=0.073;entryDx=0;entryDy=0;entryPerimeter=0;" parent="1" source="cwfqS2g9V0hjJfOpwHUW-28" target="g1NR8oi6RR4LAQB7Cah_-6" edge="1">
          <mxGeometry relative="1" as="geometry">
            <Array as="points">
              <mxPoint x="1320" y="110" />
              <mxPoint x="913" y="110" />
            </Array>
          </mxGeometry>
        </mxCell>
        <mxCell id="ZmFsVwPLsDHrUgONcmU9-37" value="&lt;font style=&quot;font-size: 16px;&quot;&gt;一部手机管安全平台&lt;/font&gt;" style="rounded=0;whiteSpace=wrap;html=1;" parent="1" vertex="1">
          <mxGeometry x="400" y="110" width="150" height="40" as="geometry" />
        </mxCell>
        <mxCell id="OxnyhG7n_Ww-8Wtoy-4O-2" style="edgeStyle=orthogonalEdgeStyle;rounded=0;orthogonalLoop=1;jettySize=auto;html=1;entryX=0.5;entryY=0;entryDx=0;entryDy=0;curved=1;exitX=0.525;exitY=0.992;exitDx=0;exitDy=0;exitPerimeter=0;" edge="1" parent="1" source="iA-pUIL5ll57liZTJjDe-2" target="npg-B8WdXjfn3l7shgS7-79">
          <mxGeometry relative="1" as="geometry" />
        </mxCell>
        <mxCell id="iA-pUIL5ll57liZTJjDe-2" value="" style="verticalLabelPosition=bottom;aspect=fixed;html=1;shape=mxgraph.salesforce.data2;" parent="1" vertex="1">
          <mxGeometry x="459.5" y="850" width="49" height="49" as="geometry" />
        </mxCell>
        <mxCell id="OxnyhG7n_Ww-8Wtoy-4O-3" style="edgeStyle=orthogonalEdgeStyle;rounded=0;orthogonalLoop=1;jettySize=auto;html=1;entryX=0.5;entryY=0;entryDx=0;entryDy=0;curved=1;exitX=0.426;exitY=0.992;exitDx=0;exitDy=0;exitPerimeter=0;" edge="1" parent="1" source="iA-pUIL5ll57liZTJjDe-3" target="npg-B8WdXjfn3l7shgS7-79">
          <mxGeometry relative="1" as="geometry" />
        </mxCell>
        <mxCell id="iA-pUIL5ll57liZTJjDe-3" value="" style="verticalLabelPosition=bottom;aspect=fixed;html=1;shape=mxgraph.salesforce.data2;" parent="1" vertex="1">
          <mxGeometry x="639.5" y="850" width="49" height="49" as="geometry" />
        </mxCell>
        <mxCell id="OxnyhG7n_Ww-8Wtoy-4O-4" style="edgeStyle=orthogonalEdgeStyle;rounded=0;orthogonalLoop=1;jettySize=auto;html=1;curved=1;exitX=0.475;exitY=0.992;exitDx=0;exitDy=0;exitPerimeter=0;" edge="1" parent="1" source="iA-pUIL5ll57liZTJjDe-4">
          <mxGeometry relative="1" as="geometry">
            <mxPoint x="770" y="950" as="targetPoint" />
          </mxGeometry>
        </mxCell>
        <mxCell id="iA-pUIL5ll57liZTJjDe-4" value="" style="verticalLabelPosition=bottom;aspect=fixed;html=1;shape=mxgraph.salesforce.data2;" parent="1" vertex="1">
          <mxGeometry x="819.5" y="850" width="49" height="49" as="geometry" />
        </mxCell>
        <mxCell id="OxnyhG7n_Ww-8Wtoy-4O-5" style="edgeStyle=orthogonalEdgeStyle;rounded=0;orthogonalLoop=1;jettySize=auto;html=1;curved=1;exitX=0.475;exitY=0.992;exitDx=0;exitDy=0;exitPerimeter=0;" edge="1" parent="1" source="iA-pUIL5ll57liZTJjDe-5">
          <mxGeometry relative="1" as="geometry">
            <mxPoint x="770" y="950" as="targetPoint" />
          </mxGeometry>
        </mxCell>
        <mxCell id="iA-pUIL5ll57liZTJjDe-5" value="" style="verticalLabelPosition=bottom;aspect=fixed;html=1;shape=mxgraph.salesforce.data2;" parent="1" vertex="1">
          <mxGeometry x="999.5" y="850" width="49" height="49" as="geometry" />
        </mxCell>
        <mxCell id="iA-pUIL5ll57liZTJjDe-8" value="" style="group" parent="1" vertex="1" connectable="0">
          <mxGeometry x="1009.7" y="242" width="99.99999999999999" height="90" as="geometry" />
        </mxCell>
        <mxCell id="sX4xNsWJsBZlZlb6Hwkb-11" value="" style="rounded=0;whiteSpace=wrap;html=1;dashed=1;strokeColor=#FF0000;" parent="iA-pUIL5ll57liZTJjDe-8" vertex="1">
          <mxGeometry x="-39.7" y="-18" width="129.7" height="98" as="geometry" />
        </mxCell>
        <mxCell id="iA-pUIL5ll57liZTJjDe-1" value="" style="points=[];aspect=fixed;html=1;align=center;shadow=0;dashed=0;fillColor=#FF6A00;strokeColor=none;shape=mxgraph.alibaba_cloud.elasticsearch;" parent="iA-pUIL5ll57liZTJjDe-8" vertex="1">
          <mxGeometry x="22" width="45.9" height="50.099999999999994" as="geometry" />
        </mxCell>
        <mxCell id="iA-pUIL5ll57liZTJjDe-7" value="Elasticsearch" style="text;html=1;align=center;verticalAlign=middle;resizable=0;points=[];autosize=1;strokeColor=none;fillColor=none;" parent="iA-pUIL5ll57liZTJjDe-8" vertex="1">
          <mxGeometry y="42" width="90" height="30" as="geometry" />
        </mxCell>
        <mxCell id="iA-pUIL5ll57liZTJjDe-9" style="edgeStyle=orthogonalEdgeStyle;rounded=0;orthogonalLoop=1;jettySize=auto;html=1;entryX=0.503;entryY=-0.02;entryDx=0;entryDy=0;entryPerimeter=0;startArrow=classic;startFill=1;" parent="1" source="npg-B8WdXjfn3l7shgS7-77" target="iA-pUIL5ll57liZTJjDe-1" edge="1">
          <mxGeometry relative="1" as="geometry" />
        </mxCell>
        <mxCell id="iA-pUIL5ll57liZTJjDe-11" style="edgeStyle=orthogonalEdgeStyle;rounded=0;orthogonalLoop=1;jettySize=auto;html=1;entryX=-0.02;entryY=0.587;entryDx=0;entryDy=0;entryPerimeter=0;" parent="1" source="g1NR8oi6RR4LAQB7Cah_-6" target="iA-pUIL5ll57liZTJjDe-1" edge="1">
          <mxGeometry relative="1" as="geometry" />
        </mxCell>
        <mxCell id="sX4xNsWJsBZlZlb6Hwkb-1" value="" style="rounded=1;whiteSpace=wrap;html=1;" parent="1" vertex="1">
          <mxGeometry x="141.75" y="634" width="197.5" height="152" as="geometry" />
        </mxCell>
        <mxCell id="sX4xNsWJsBZlZlb6Hwkb-2" value="&lt;font style=&quot;color: rgb(255, 255, 255);&quot;&gt;消息管理&lt;/font&gt;" style="rounded=1;whiteSpace=wrap;html=1;fillColor=#FFCCCC;strokeColor=#b85450;gradientColor=#FF0000;" parent="1" vertex="1">
          <mxGeometry x="198" y="644" width="85" height="30" as="geometry" />
        </mxCell>
        <mxCell id="sX4xNsWJsBZlZlb6Hwkb-3" value="短信" style="rounded=0;whiteSpace=wrap;html=1;" parent="1" vertex="1">
          <mxGeometry x="149.25" y="695" width="85" height="30" as="geometry" />
        </mxCell>
        <mxCell id="sX4xNsWJsBZlZlb6Hwkb-5" value="云交畅联" style="rounded=0;whiteSpace=wrap;html=1;" parent="1" vertex="1">
          <mxGeometry x="248" y="695" width="85" height="30" as="geometry" />
        </mxCell>
        <mxCell id="sX4xNsWJsBZlZlb6Hwkb-6" value="小程序" style="rounded=0;whiteSpace=wrap;html=1;" parent="1" vertex="1">
          <mxGeometry x="149.25" y="735" width="85" height="30" as="geometry" />
        </mxCell>
        <mxCell id="sX4xNsWJsBZlZlb6Hwkb-10" value="站内信" style="rounded=0;whiteSpace=wrap;html=1;" parent="1" vertex="1">
          <mxGeometry x="248" y="735" width="85" height="30" as="geometry" />
        </mxCell>
        <mxCell id="OxnyhG7n_Ww-8Wtoy-4O-1" style="edgeStyle=orthogonalEdgeStyle;rounded=0;orthogonalLoop=1;jettySize=auto;html=1;exitX=1;exitY=0.5;exitDx=0;exitDy=0;entryX=0.981;entryY=0.393;entryDx=0;entryDy=0;entryPerimeter=0;" edge="1" parent="1" source="npg-B8WdXjfn3l7shgS7-79" target="npg-B8WdXjfn3l7shgS7-77">
          <mxGeometry relative="1" as="geometry">
            <Array as="points">
              <mxPoint x="1200" y="973" />
              <mxPoint x="1200" y="154" />
            </Array>
          </mxGeometry>
        </mxCell>
      </root>
    </mxGraphModel>
  </diagram>
</mxfile>
